<svg xmlns="http://www.w3.org/2000/svg" version="1.1" xmlns:xlink="http://www.w3.org/1999/xlink" width="512" height="512" x="0" y="0" viewBox="0 0 16 16" style="enable-background:new 0 0 512 512" xml:space="preserve" class=""><g><path fill="#2abcdd" d="M8 0a8 8 0 1 0 8 8 8.01 8.01 0 0 0-8-8zm1.06 10.47-.71.71a2.45 2.45 0 0 1-1.76.73 2.496 2.496 0 0 1-1.77-4.26l.71-.71a.483.483 0 0 1 .7 0 .495.495 0 0 1 0 .71l-.71.7a1.506 1.506 0 0 0-.43 1.06 1.472 1.472 0 0 0 .43 1.06 1.503 1.503 0 0 0 2.13 0l.7-.7a.495.495 0 0 1 .71 0 .483.483 0 0 1 0 .7zm.35-3.18L7.29 9.41a.483.483 0 0 1-.7 0 .483.483 0 0 1 0-.7l2.12-2.12a.495.495 0 1 1 .7.7zm1.77 1.06-.71.71a.47.47 0 0 1-.35.15.485.485 0 0 1-.35-.15.495.495 0 0 1 0-.71l.71-.7a1.506 1.506 0 0 0 .43-1.06 1.472 1.472 0 0 0-.43-1.06 1.503 1.503 0 0 0-2.13 0l-.7.7a.495.495 0 0 1-.71 0 .483.483 0 0 1 0-.7l.71-.71a2.496 2.496 0 0 1 3.53 3.53z" opacity="1" data-original="#2196f3" class=""></path></g></svg>